<?xml version="1.0" standalone="no"?><!DOCTYPE svg PUBLIC "-//W3C//DTD SVG 1.1//EN" "http://www.w3.org/Graphics/SVG/1.1/DTD/svg11.dtd"><svg t="1583212654456" class="icon" viewBox="0 0 1024 1024" version="1.1" xmlns="http://www.w3.org/2000/svg" p-id="5722" width="32" height="32" xmlns:xlink="http://www.w3.org/1999/xlink"><defs><style type="text/css"></style></defs><path d="M973.432099 383.77425c-0.902998-1.805996-0.902998-3.611993-1.805997-4.514991l-85.784832-214.91358c-12.641975-37.022928-47.858907-38.828924-61.40388-40.634921H213.107584c-17.156966 0-46.05291 4.514991-56.888889 36.11993L64.112875 379.259259c0 1.805996-0.902998 3.611993-0.902998 5.41799-5.417989 17.156966-9.029982 34.313933-9.029983 51.470899 0 56.888889 30.70194 109.262787 83.978836 137.255732 19.865961 9.932981 42.440917 14.447972 69.530864 14.447972 53.276896 0 102.038801-27.992945 130.031746-73.142857 0.902998-1.805996 1.805996-2.708995 2.708995-4.514991 1.805996-3.611993 3.611993-7.223986 6.320988-9.932981 3.611993-4.514991 27.992945-9.029982 37.925926 2.708995 1.805996 1.805996 3.611993 5.417989 6.320987 10.835978 27.089947 45.149912 75.851852 73.142857 129.128748 73.142858 52.373898-0.902998 100.232804-27.992945 130.031746-76.75485 1.805996-3.611993 3.611993-7.223986 6.320988-9.932981 5.417989-6.320988 27.992945-9.932981 37.022928 0.902998 3.611993 3.611993 5.417989 8.126984 7.223985 13.544974 27.992945 45.149912 76.75485 73.142857 130.031746 72.239859 27.992945 0 52.373898-5.417989 73.142858-17.156967 48.761905-27.992945 78.560847-79.463845 78.560846-135.449735 0-16.253968-2.708995-33.410935-9.029982-50.567902zM798.250441 956.275132h-559.858907c-54.179894 0-97.52381-44.246914-97.523809-97.523809V665.5097c0-17.156966 13.544974-29.798942 29.798942-29.798942 17.156966 0 29.798942 13.544974 29.798941 29.798942v193.241623c0 20.768959 17.156966 37.925926 37.925926 37.925926h559.858907c20.768959 0 37.925926-17.156966 37.925926-37.925926V665.5097c0-17.156966 13.544974-29.798942 29.798942-29.798942 17.156966 0 29.798942 13.544974 29.798941 29.798942v193.241623c0.902998 54.179894-43.343915 97.52381-97.523809 97.523809z" p-id="5723" fill="#d4237a"></path></svg>