<?xml version="1.0" standalone="no"?><!DOCTYPE svg PUBLIC "-//W3C//DTD SVG 1.1//EN" "http://www.w3.org/Graphics/SVG/1.1/DTD/svg11.dtd"><svg t="1583212623437" class="icon" viewBox="0 0 1024 1024" version="1.1" xmlns="http://www.w3.org/2000/svg" p-id="5307" width="32" height="32" xmlns:xlink="http://www.w3.org/1999/xlink"><defs><style type="text/css"></style></defs><path d="M53.845333 561.009778v112.270222c0 46.392889 36.124444 84.024889 80.725334 84.024889s80.782222-37.688889 80.782222-84.024889v-112.270222c0-46.392889-36.181333-84.024889-80.782222-84.024889-44.600889 0-80.725333 37.632-80.725334 84.024889z m742.172445 214.129778a142.222222 142.222222 0 0 1-42.325334-101.831112v-112.298666c0-76.913778 59.733333-139.377778 133.632-139.946667C873.528889 217.6 710.485333 56.945778 511.431111 56.945778S149.333333 217.543111 135.537778 421.091556c73.898667 0.568889 133.546667 63.032889 133.632 139.946666v112.241778c0 77.368889-60.245333 140.060444-134.599111 140.060444C60.245333 813.340444 0 750.620444 0 673.28v-112.270222c0-55.751111 31.857778-106.154667 81.066667-128.398222C89.344 192.739556 278.840889 0.938667 511.431111 0.938667c232.561778 0 422.058667 191.800889 430.364445 431.729777 49.152 22.186667 80.981333 72.618667 81.066666 128.398223v112.241777c0 45.454222-21.304889 88.120889-57.088 114.375112a130.133333 130.133333 0 0 1-122.680889 17.493333 456.192 456.192 0 0 1-183.694222 122.680889c-1.28 53.248-43.235556 95.658667-94.435555 95.459555h-80.213334c-52.252444 0-94.464-43.690667-94.464-98.019555 0-54.328889 42.097778-98.048 94.464-98.048h80.213334c33.991111 0 63.715556 18.488889 80.384 46.364444a402.005333 402.005333 0 0 0 150.698666-98.446222v-0.028444z m11.491555-214.101334v112.270222c0 46.364444 36.152889 83.996444 80.782223 83.996445 44.572444 0 80.725333-37.660444 80.725333-83.996445v-112.298666c0-46.392889-36.124444-84.024889-80.753778-84.024889-44.600889 0-80.753778 37.632-80.753778 84.024889z m-322.730666 406.186667h80.213333c22.670222 0 40.675556-18.688 40.675556-41.984 0-23.324444-18.090667-42.012444-40.675556-42.012445h-80.213333c-22.670222 0-40.647111 18.688-40.647111 42.012445 0 23.324444 18.062222 42.012444 40.675555 42.012444z" fill="#d4237a" p-id="5308"></path></svg>