<?xml version="1.0" standalone="no"?><!DOCTYPE svg PUBLIC "-//W3C//DTD SVG 1.1//EN" "http://www.w3.org/Graphics/SVG/1.1/DTD/svg11.dtd"><svg t="1583212668879" class="icon" viewBox="0 0 1024 1024" version="1.1" xmlns="http://www.w3.org/2000/svg" p-id="5965" width="32" height="32" xmlns:xlink="http://www.w3.org/1999/xlink"><defs><style type="text/css"></style></defs><path d="M512.349 39.638V106.1c0.831 0 2.354 0.692 3.046 1.246 0.415 0.831 0.692 1.662 1.108 2.354l113.4 230.4c9.415 19.108 27.277 32.4 48.185 36.138l253.385 44.308c0.831 0.138 1.8 0.277 2.631 0.415 0.415 0 1.108 0.554 1.246 0.969 0.277 1.246 0.692 2.631 1.108 3.877 0.277 0.831 1.108 3.323-1.246 6.092L753.965 602.762c-16.477 15.508-23.954 38.354-19.8 60.508l46.108 248.123v0.138c0.415 2.492-1.661 4.569-2.908 5.539-0.277 0.277-0.554 0.415-0.831 0.692-1.108-0.277-2.492-0.831-4.015-1.523l-230.4-115.2c-9.415-4.708-19.523-7.062-29.769-7.062-10.108 0-20.215 2.354-29.492 6.923l-232.2 115.2c-0.692 0.277-1.246 0.692-1.938 0.969-0.138 0-0.692 0.277-1.523 0.277s-1.523-0.138-1.662-0.277c-1.523-1.246-2.769-3.739-2.908-4.985v-0.138l47.908-248.262c4.292-22.431-3.185-45.554-19.938-61.2L89.349 433.7c-1.662-1.938-2.492-5.677-2.354-7.892 0.692-1.523 1.385-2.215 1.662-2.492 0.138-0.138 0.415-0.277 1.246-0.415 1.246-0.138 2.492-0.277 3.6-0.554l253.385-46.108c20.769-3.738 38.492-17.169 47.769-36l113.262-230.123c1.523-2.908 3.877-3.877 4.292-3.877v-66.6m0.138-0.001c-26.585 0-51.369 15.923-63.831 40.708l-113.4 230.4-253.385 46.108c-28.385 3.6-49.569 22.985-58.431 49.569-7.062 24.785 0 54.969 19.523 74.492l182.492 170.308-47.907 248.123c-5.262 26.585 7.062 54.969 28.385 70.892 11.908 9 26.723 13.431 41.4 13.431 11.492 0 22.846-2.769 32.954-8.169l232.2-115.2 230.4 115.2c10.661 5.262 22.985 8.862 33.646 8.862 15.923 0 30.185-5.262 40.708-14.123 21.323-15.923 33.646-42.508 28.385-70.892L799.38 651.223l182.492-171.969c19.523-19.523 26.585-47.908 17.723-74.492-7.062-26.585-30.185-46.108-56.769-49.569l-253.385-44.308-113.4-230.4c-10.523-24.785-37.108-40.847-63.692-40.847z" p-id="5966" fill="#d4237a"></path></svg>